<svg width="207" height="46" viewBox="0 0 207 46" fill="none" xmlns="http://www.w3.org/2000/svg">
    <path fill-rule="evenodd" clip-rule="evenodd"
        d="M56.8933 3.45415C56.341 3.99823 56.0648 4.7017 56.0648 5.52332L56.062 11.1675H54.7091C53.9169 11.1675 53.2419 11.4038 52.7175 11.8792C52.1847 12.3656 51.9141 13.0196 51.9141 13.789C51.9141 14.5062 52.1903 15.13 52.7175 15.6136C53.1387 15.9928 53.6603 16.2237 54.2656 16.2951L56.062 16.3061L56.0648 26.4981C56.0648 28.2155 56.433 29.7763 57.1694 31.1668C57.9114 32.56 58.9323 33.6701 60.2266 34.4835C61.5293 35.2996 62.9994 35.7118 64.6172 35.7118H65.4206C66.3523 35.7118 67.1445 35.4535 67.7693 34.9314C68.4164 34.3901 68.7512 33.6729 68.7512 32.8265C68.7512 32.0186 68.5085 31.3289 68.0176 30.7876C67.5127 30.2298 66.8739 29.9412 66.1347 29.9412H64.6172C63.8808 29.9412 63.2727 29.6417 62.7483 29.0069C62.1988 28.3447 61.9226 27.5148 61.9226 26.4981L61.9198 16.3144L65.0189 16.3226C65.8111 16.3226 66.4889 16.0863 67.0106 15.6136C67.5406 15.13 67.8139 14.5062 67.8139 13.789C67.8139 13.0196 67.5461 12.3656 67.0106 11.8792C66.4889 11.4038 65.8111 11.1675 65.0189 11.1675H61.9198L61.9226 5.52332C61.9226 4.7017 61.6465 3.99823 61.0942 3.45415C60.5446 2.91006 59.8278 2.63802 58.9937 2.63802C58.1597 2.63802 57.4456 2.91006 56.8933 3.45415Z"
        fill="white" />
    <path fill-rule="evenodd" clip-rule="evenodd"
        d="M80.5392 11.3433C79.9562 11.6621 79.4206 12.0248 78.9269 12.4288C78.8209 11.8654 78.5922 11.401 78.2268 11.0411C77.7107 10.5272 76.9743 10.2881 76.0621 10.2881C75.1723 10.2881 74.4443 10.5409 73.9143 11.063C73.3871 11.5824 73.1304 12.2996 73.1304 13.1734V32.8265C73.1304 33.7305 73.3871 34.4615 73.9254 34.9698C74.4554 35.4727 75.1779 35.7118 76.0621 35.7118C76.9799 35.7118 77.7219 35.459 78.2351 34.9314C78.7456 34.4093 78.9883 33.6948 78.9883 32.8265V19.9223C79.0022 18.7847 79.3732 17.8641 80.1068 17.1277C80.8823 16.35 81.9562 15.8114 83.3482 15.5147C84.7652 15.2151 86.3831 15.2426 88.1934 15.6053C88.6509 15.7098 89.1056 15.729 89.5296 15.652C89.9814 15.5696 90.3887 15.3745 90.7374 15.0722C91.1084 14.7507 91.3511 14.3056 91.471 13.7587C91.7527 12.6843 91.2785 11.717 90.1684 10.9943C89.1586 10.3376 87.6997 10.0243 85.7889 10.0243C83.8865 10.0243 82.132 10.464 80.5392 11.3433Z"
        fill="white" />
    <path fill-rule="evenodd" clip-rule="evenodd"
        d="M95.6721 1.62956C94.9636 2.33027 94.5982 3.18487 94.5982 4.16313C94.5982 5.13314 94.9636 5.99323 95.6721 6.68845C96.3834 7.38917 97.2537 7.74915 98.2412 7.74915C99.2314 7.74915 100.099 7.38917 100.81 6.68845C101.522 5.99323 101.884 5.13314 101.884 4.16313C101.884 3.18487 101.522 2.33027 100.81 1.62956C100.099 0.928841 99.2314 0.571613 98.2412 0.571613C97.2537 0.571613 96.3834 0.928841 95.6721 1.62956ZM96.1268 11.0961C95.5549 11.6402 95.2704 12.3629 95.2704 13.2175V32.7826C95.2704 33.6042 95.5521 34.3159 96.1212 34.8737C96.6846 35.4288 97.4043 35.7118 98.2412 35.7118C99.1115 35.7118 99.8395 35.4288 100.395 34.8627C100.941 34.3104 101.215 33.6015 101.215 32.7826V13.2175C101.215 12.3684 100.941 11.6512 100.386 11.1043C99.8339 10.5603 99.1031 10.2882 98.2412 10.2882C97.4099 10.2882 96.693 10.5603 96.1268 11.0961Z"
        fill="white" />
    <path fill-rule="evenodd" clip-rule="evenodd"
        d="M119.714 10.1123L120.28 10.1224C122.526 10.2028 124.556 10.7655 126.361 11.8105L126.84 12.1021C128.565 13.2024 129.958 14.6466 131.006 16.4325L131.261 16.8878C132.24 18.7263 132.73 20.7746 132.73 23.022L132.72 23.5777C132.646 25.7834 132.124 27.7843 131.151 29.5675L130.88 30.043C129.856 31.7562 128.502 33.1382 126.827 34.1785L126.398 34.4315C124.665 35.403 122.731 35.8877 120.607 35.8877L120.053 35.8762C118.404 35.8075 116.871 35.4291 115.455 34.7391L114.954 34.4808C114.132 34.0342 113.379 33.5076 112.693 32.9007V43.0707L112.683 43.3387C112.629 44.0425 112.356 44.6578 111.87 45.1536L111.679 45.331C111.151 45.7764 110.488 46 109.717 46L109.442 45.9895C108.722 45.9337 108.098 45.6553 107.597 45.1619L107.418 44.9704C106.97 44.4451 106.743 43.8035 106.743 43.0707V23.0138L106.76 22.4573C106.867 20.2479 107.444 18.2364 108.487 16.438L108.778 15.9587C109.879 14.2325 111.324 12.8483 113.112 11.8105C115.067 10.6784 117.271 10.1123 119.714 10.1123ZM119.714 15.4433L119.265 15.4553C118.081 15.5194 117.009 15.8402 116.035 16.4215L115.678 16.6483C114.751 17.2765 114.01 18.0926 113.452 19.1062L113.255 19.4931C112.762 20.5403 112.515 21.7128 112.515 23.022L112.526 23.4971C112.588 24.7487 112.897 25.8777 113.452 26.8938L113.67 27.264C114.273 28.2269 115.061 28.9972 116.035 29.5785C117.131 30.2298 118.35 30.5568 119.714 30.5568L120.171 30.5447C121.375 30.4801 122.453 30.1577 123.413 29.5813L123.766 29.3536C124.686 28.723 125.429 27.9047 125.999 26.8911L126.201 26.5047C126.708 25.4602 126.961 24.3019 126.961 23.022L126.949 22.5383C126.886 21.265 126.569 20.1254 125.999 19.1117L125.777 18.7399C125.164 17.7731 124.378 17.0026 123.413 16.4188L123.048 16.2138C122.058 15.6995 120.949 15.4433 119.714 15.4433Z"
        fill="white" />
    <path fill-rule="evenodd" clip-rule="evenodd"
        d="M143.193 11.8105C141.24 12.9427 139.698 14.487 138.565 16.438C137.433 18.3863 136.853 20.5846 136.822 23.0138V43.0707C136.822 43.8951 137.109 44.6041 137.673 45.1619C138.236 45.717 138.959 46 139.796 46C140.663 46 141.394 45.717 141.949 45.1536C142.493 44.5958 142.769 43.8869 142.769 43.0707V32.9007C143.595 33.6289 144.515 34.2417 145.533 34.7391C147.104 35.5057 148.825 35.8877 150.686 35.8877C152.99 35.8877 155.065 35.3189 156.903 34.1785C158.733 33.0436 160.178 31.502 161.23 29.5675C162.281 27.6357 162.808 25.4484 162.808 23.022C162.808 20.5874 162.234 18.3863 161.085 16.4325C159.941 14.4843 158.387 12.9427 156.44 11.8105C154.485 10.6784 152.264 10.1123 149.793 10.1123C147.349 10.1123 145.146 10.6784 143.193 11.8105ZM146.114 29.5785C145.017 28.9245 144.158 28.0314 143.533 26.8938C142.906 25.7507 142.591 24.4647 142.591 23.022C142.591 21.5491 142.906 20.2494 143.533 19.1062C144.158 17.9659 145.017 17.0755 146.114 16.4215C147.21 15.7675 148.432 15.4433 149.793 15.4433C151.185 15.4433 152.412 15.7675 153.489 16.4188C154.577 17.0755 155.439 17.9686 156.078 19.1117C156.719 20.2521 157.04 21.5519 157.04 23.022C157.04 24.4619 156.719 25.7479 156.078 26.8911C155.439 28.0314 154.577 28.9245 153.489 29.5813C152.412 30.2298 151.185 30.5568 149.793 30.5568C148.432 30.5568 147.21 30.2298 146.114 29.5785Z"
        fill="white" />
    <path fill-rule="evenodd" clip-rule="evenodd"
        d="M168.133 0.818876C167.581 1.36021 167.305 2.06368 167.305 2.8853V26.891C167.305 28.57 167.606 30.0648 168.217 31.3756C168.831 32.7001 169.698 33.7553 170.811 34.5329C171.944 35.3188 173.246 35.7118 174.697 35.7118H174.786C175.818 35.7118 176.691 35.4645 177.389 34.9616C178.128 34.4258 178.518 33.6921 178.518 32.8265C178.518 32.0186 178.273 31.3289 177.782 30.7875C177.277 30.227 176.605 29.9412 175.812 29.9412H174.697C174.309 29.9412 173.994 29.7324 173.693 29.2267C173.344 28.6359 173.163 27.861 173.163 26.891V2.8853C173.163 2.06368 172.884 1.36021 172.334 0.818876C171.782 0.274791 171.068 0 170.234 0C169.4 0 168.685 0.274791 168.133 0.818876Z"
        fill="white" />
    <path fill-rule="evenodd" clip-rule="evenodd"
        d="M186.625 11.7638C184.669 12.8685 183.129 14.3908 182.011 16.3308C180.895 18.2681 180.337 20.5049 180.337 23.022C180.337 25.5116 180.895 27.7319 182.011 29.6692C183.129 31.6092 184.669 33.1343 186.625 34.2362C188.58 35.3381 190.823 35.8877 193.353 35.8877C195.88 35.8877 198.125 35.3381 200.084 34.2362C202.036 33.1343 203.57 31.6092 204.672 29.6664C205.774 27.7292 206.324 25.5089 206.324 23.022C206.324 20.5049 205.766 18.2681 204.65 16.3308C203.528 14.3908 201.992 12.8685 200.036 11.7638C198.084 10.6619 195.852 10.1123 193.353 10.1123C190.823 10.1123 188.58 10.6619 186.625 11.7638ZM189.606 29.5977C188.521 28.9602 187.673 28.0809 187.046 26.957C186.421 25.8304 186.106 24.5224 186.106 23.022C186.106 21.5216 186.421 20.2054 187.048 19.0623C187.673 17.9219 188.524 17.0398 189.606 16.4023C190.683 15.7648 191.927 15.4433 193.353 15.4433C194.778 15.4433 196.019 15.7648 197.099 16.4023C198.178 17.0398 199.021 17.9191 199.632 19.0568C200.245 20.1999 200.555 21.5189 200.555 23.022C200.555 24.5251 200.245 25.8359 199.632 26.9625C199.024 28.0836 198.181 28.9602 197.099 29.5977C196.019 30.2353 194.778 30.5568 193.353 30.5568C191.927 30.5568 190.683 30.2353 189.606 29.5977Z"
        fill="white" />
    <path fill-rule="evenodd" clip-rule="evenodd"
        d="M19.2275 32.5833C25.5989 32.5833 30.7639 27.4346 30.7639 21.0833C30.7639 14.7321 25.5989 9.58333 19.2275 9.58333C12.856 9.58333 7.69098 14.7321 7.69098 21.0833C7.69098 27.4346 12.856 32.5833 19.2275 32.5833ZM19.2275 40.25C29.8465 40.25 38.4549 31.6688 38.4549 21.0833C38.4549 10.4979 29.8465 1.91667 19.2275 1.91667C8.60842 1.91667 0 10.4979 0 21.0833C0 31.6688 8.60842 40.25 19.2275 40.25Z"
        fill="white" />
    <path
        d="M25.7055 21.3088C25.7055 24.858 22.8283 27.7353 19.279 27.7353C15.7298 27.7353 12.8525 24.858 12.8525 21.3088C12.8525 17.7596 15.7298 14.8823 19.279 14.8823C22.8283 14.8823 25.7055 17.7596 25.7055 21.3088Z"
        fill="white" />
</svg>